<?xml version="1.0" encoding="UTF-8"?><svg xmlns="http://www.w3.org/2000/svg" xmlns:xlink="http://www.w3.org/1999/xlink" fill-opacity="1" color-rendering="auto" color-interpolation="auto" text-rendering="auto" stroke="black" stroke-linecap="square" width="1638" stroke-miterlimit="10" shape-rendering="auto" stroke-opacity="1" fill="black" stroke-dasharray="none" font-weight="normal" stroke-width="1" height="627" font-family="'Dialog'" font-style="normal" stroke-linejoin="miter" font-size="12px" stroke-dashoffset="0" image-rendering="auto">
  <!--Generated by ySVG 2.5-->
  <defs id="genericDefs"/>
  <g>
    <defs id="defs1">
      <clipPath clipPathUnits="userSpaceOnUse" id="clipPath1">
        <path d="M0 0 L1638 0 L1638 627 L0 627 L0 0 Z"/>
      </clipPath>
      <clipPath clipPathUnits="userSpaceOnUse" id="clipPath2">
        <path d="M360 227 L1998 227 L1998 854 L360 854 L360 227 Z"/>
      </clipPath>
      <clipPath clipPathUnits="userSpaceOnUse" id="clipPath3">
        <path d="M1059 325 L1059 365 L1288 365 L1288 325 Z"/>
      </clipPath>
      <clipPath clipPathUnits="userSpaceOnUse" id="clipPath4">
        <path d="M375 504 L375 544 L528 544 L528 504 Z"/>
      </clipPath>
      <clipPath clipPathUnits="userSpaceOnUse" id="clipPath5">
        <path d="M558 504 L558 544 L772 544 L772 504 Z"/>
      </clipPath>
      <clipPath clipPathUnits="userSpaceOnUse" id="clipPath6">
        <path d="M794 504 L794 544 L973 544 L973 504 Z"/>
      </clipPath>
      <clipPath clipPathUnits="userSpaceOnUse" id="clipPath7">
        <path d="M997 504 L997 544 L1163 544 L1163 504 Z"/>
      </clipPath>
      <clipPath clipPathUnits="userSpaceOnUse" id="clipPath8">
        <path d="M1186 504 L1186 544 L1373 544 L1373 504 Z"/>
      </clipPath>
      <clipPath clipPathUnits="userSpaceOnUse" id="clipPath9">
        <path d="M1614 504 L1614 544 L1787 544 L1787 504 Z"/>
      </clipPath>
      <clipPath clipPathUnits="userSpaceOnUse" id="clipPath10">
        <path d="M1817 504 L1817 544 L1982 544 L1982 504 Z"/>
      </clipPath>
      <clipPath clipPathUnits="userSpaceOnUse" id="clipPath11">
        <path d="M1395 504 L1395 544 L1594 544 L1594 504 Z"/>
      </clipPath>
      <clipPath clipPathUnits="userSpaceOnUse" id="clipPath12">
        <path d="M1597 640 L1597 680 L1756 680 L1756 640 Z"/>
      </clipPath>
      <clipPath clipPathUnits="userSpaceOnUse" id="clipPath13">
        <path d="M1445 640 L1445 680 L1572 680 L1572 640 Z"/>
      </clipPath>
      <clipPath clipPathUnits="userSpaceOnUse" id="clipPath14">
        <path d="M1256 640 L1256 680 L1422 680 L1422 640 Z"/>
      </clipPath>
      <clipPath clipPathUnits="userSpaceOnUse" id="clipPath15">
        <path d="M1121 640 L1121 680 L1226 680 L1226 640 Z"/>
      </clipPath>
      <clipPath clipPathUnits="userSpaceOnUse" id="clipPath16">
        <path d="M964 640 L964 680 L1101 680 L1101 640 Z"/>
      </clipPath>
      <clipPath clipPathUnits="userSpaceOnUse" id="clipPath17">
        <path d="M781 640 L781 680 L934 680 L934 640 Z"/>
      </clipPath>
      <clipPath clipPathUnits="userSpaceOnUse" id="clipPath18">
        <path d="M1384 798 L1384 838 L1537 838 L1537 798 Z"/>
      </clipPath>
      <clipPath clipPathUnits="userSpaceOnUse" id="clipPath19">
        <path d="M806 798 L806 838 L972 838 L972 798 Z"/>
      </clipPath>
      <clipPath clipPathUnits="userSpaceOnUse" id="clipPath20">
        <path d="M645 640 L645 680 L759 680 L759 640 Z"/>
      </clipPath>
      <clipPath clipPathUnits="userSpaceOnUse" id="clipPath21">
        <path d="M1059 798 L1059 838 L1288 838 L1288 798 Z"/>
      </clipPath>
      <clipPath clipPathUnits="userSpaceOnUse" id="clipPath22">
        <path d="M1059 242 L1059 282 L1288 282 L1288 242 Z"/>
      </clipPath>
    </defs>
    <g fill="white" text-rendering="geometricPrecision" shape-rendering="geometricPrecision" transform="translate(-360,-227)" stroke="white">
      <rect x="360" width="1638" height="627" y="227" clip-path="url(#clipPath2)" stroke="none"/>
    </g>
    <g fill="rgb(255,102,102)" text-rendering="geometricPrecision" shape-rendering="geometricPrecision" transform="matrix(1,0,0,1,-360,-227)" stroke="rgb(255,102,102)">
      <rect x="1060" width="227" height="38" y="326" clip-path="url(#clipPath2)" stroke="none"/>
      <rect x="1059" y="325" clip-path="url(#clipPath2)" fill="rgb(255,145,145)" width="1" height="40" stroke="none"/>
      <rect x="1060" y="325" clip-path="url(#clipPath2)" fill="rgb(255,145,145)" width="227" height="1" stroke="none"/>
      <rect x="1060" y="364" clip-path="url(#clipPath2)" fill="rgb(178,71,71)" width="228" height="1" stroke="none"/>
      <rect x="1287" y="325" clip-path="url(#clipPath2)" fill="rgb(178,71,71)" width="1" height="39" stroke="none"/>
    </g>
    <g font-size="15px" stroke-linecap="butt" transform="matrix(1,0,0,1,-360,-227)" text-rendering="geometricPrecision" font-family="sans-serif" shape-rendering="geometricPrecision" font-weight="bold" stroke-miterlimit="1.45">
      <text x="1129.3528" xml:space="preserve" y="345.0603" clip-path="url(#clipPath3)" stroke="none">MEReaction</text>
    </g>
    <g fill="rgb(255,102,102)" text-rendering="geometricPrecision" shape-rendering="geometricPrecision" transform="matrix(1,0,0,1,-360,-227)" stroke="rgb(255,102,102)">
      <rect x="376" width="151" height="38" y="505" clip-path="url(#clipPath2)" stroke="none"/>
      <rect x="375" y="504" clip-path="url(#clipPath2)" fill="rgb(255,145,145)" width="1" height="40" stroke="none"/>
      <rect x="376" y="504" clip-path="url(#clipPath2)" fill="rgb(255,145,145)" width="151" height="1" stroke="none"/>
      <rect x="376" y="543" clip-path="url(#clipPath2)" fill="rgb(178,71,71)" width="152" height="1" stroke="none"/>
      <rect x="527" y="504" clip-path="url(#clipPath2)" fill="rgb(178,71,71)" width="1" height="39" stroke="none"/>
    </g>
    <g font-size="15px" stroke-linecap="butt" transform="matrix(1,0,0,1,-360,-227)" text-rendering="geometricPrecision" font-family="sans-serif" shape-rendering="geometricPrecision" font-weight="bold" stroke-miterlimit="1.45">
      <text x="384.2718" xml:space="preserve" y="523.9784" clip-path="url(#clipPath4)" stroke="none">SummaryVariable</text>
    </g>
    <g fill="rgb(255,102,102)" text-rendering="geometricPrecision" shape-rendering="geometricPrecision" transform="matrix(1,0,0,1,-360,-227)" stroke="rgb(255,102,102)">
      <rect x="559" width="212" height="38" y="505" clip-path="url(#clipPath2)" stroke="none"/>
      <rect x="558" y="504" clip-path="url(#clipPath2)" fill="rgb(255,145,145)" width="1" height="40" stroke="none"/>
      <rect x="559" y="504" clip-path="url(#clipPath2)" fill="rgb(255,145,145)" width="212" height="1" stroke="none"/>
      <rect x="559" y="543" clip-path="url(#clipPath2)" fill="rgb(178,71,71)" width="213" height="1" stroke="none"/>
      <rect x="771" y="504" clip-path="url(#clipPath2)" fill="rgb(178,71,71)" width="1" height="39" stroke="none"/>
    </g>
    <g font-size="15px" stroke-linecap="butt" transform="matrix(1,0,0,1,-360,-227)" text-rendering="geometricPrecision" font-family="sans-serif" shape-rendering="geometricPrecision" font-weight="bold" stroke-miterlimit="1.45">
      <text x="564.1371" xml:space="preserve" y="523.9784" clip-path="url(#clipPath5)" stroke="none">GenericFormationReaction</text>
    </g>
    <g fill="rgb(255,102,102)" text-rendering="geometricPrecision" shape-rendering="geometricPrecision" transform="matrix(1,0,0,1,-360,-227)" stroke="rgb(255,102,102)">
      <rect x="795" width="177" height="38" y="505" clip-path="url(#clipPath2)" stroke="none"/>
      <rect x="794" y="504" clip-path="url(#clipPath2)" fill="rgb(255,145,145)" width="1" height="40" stroke="none"/>
      <rect x="795" y="504" clip-path="url(#clipPath2)" fill="rgb(255,145,145)" width="177" height="1" stroke="none"/>
      <rect x="795" y="543" clip-path="url(#clipPath2)" fill="rgb(178,71,71)" width="178" height="1" stroke="none"/>
      <rect x="972" y="504" clip-path="url(#clipPath2)" fill="rgb(178,71,71)" width="1" height="39" stroke="none"/>
    </g>
    <g font-size="15px" stroke-linecap="butt" transform="matrix(1,0,0,1,-360,-227)" text-rendering="geometricPrecision" font-family="sans-serif" shape-rendering="geometricPrecision" font-weight="bold" stroke-miterlimit="1.45">
      <text x="798.7846" xml:space="preserve" y="523.9784" clip-path="url(#clipPath6)" stroke="none">TranscriptionReaction</text>
    </g>
    <g fill="rgb(255,102,102)" text-rendering="geometricPrecision" shape-rendering="geometricPrecision" transform="matrix(1,0,0,1,-360,-227)" stroke="rgb(255,102,102)">
      <rect x="998" width="164" height="38" y="505" clip-path="url(#clipPath2)" stroke="none"/>
      <rect x="997" y="504" clip-path="url(#clipPath2)" fill="rgb(255,145,145)" width="1" height="40" stroke="none"/>
      <rect x="998" y="504" clip-path="url(#clipPath2)" fill="rgb(255,145,145)" width="164" height="1" stroke="none"/>
      <rect x="998" y="543" clip-path="url(#clipPath2)" fill="rgb(178,71,71)" width="165" height="1" stroke="none"/>
      <rect x="1162" y="504" clip-path="url(#clipPath2)" fill="rgb(178,71,71)" width="1" height="39" stroke="none"/>
    </g>
    <g font-size="15px" stroke-linecap="butt" transform="matrix(1,0,0,1,-360,-227)" text-rendering="geometricPrecision" font-family="sans-serif" shape-rendering="geometricPrecision" font-weight="bold" stroke-miterlimit="1.45">
      <text x="1003.5519" xml:space="preserve" y="523.9784" clip-path="url(#clipPath7)" stroke="none">TranslationReaction</text>
    </g>
    <g fill="rgb(255,102,102)" text-rendering="geometricPrecision" shape-rendering="geometricPrecision" transform="matrix(1,0,0,1,-360,-227)" stroke="rgb(255,102,102)">
      <rect x="1187" width="185" height="38" y="505" clip-path="url(#clipPath2)" stroke="none"/>
      <rect x="1186" y="504" clip-path="url(#clipPath2)" fill="rgb(255,145,145)" width="1" height="40" stroke="none"/>
      <rect x="1187" y="504" clip-path="url(#clipPath2)" fill="rgb(255,145,145)" width="185" height="1" stroke="none"/>
      <rect x="1187" y="543" clip-path="url(#clipPath2)" fill="rgb(178,71,71)" width="186" height="1" stroke="none"/>
      <rect x="1372" y="504" clip-path="url(#clipPath2)" fill="rgb(178,71,71)" width="1" height="39" stroke="none"/>
    </g>
    <g font-size="15px" stroke-linecap="butt" transform="matrix(1,0,0,1,-360,-227)" text-rendering="geometricPrecision" font-family="sans-serif" shape-rendering="geometricPrecision" font-weight="bold" stroke-miterlimit="1.45">
      <text x="1192.3188" xml:space="preserve" y="523.9784" clip-path="url(#clipPath8)" stroke="none">tRNAChargingReaction</text>
    </g>
    <g fill="rgb(255,102,102)" text-rendering="geometricPrecision" shape-rendering="geometricPrecision" transform="matrix(1,0,0,1,-360,-227)" stroke="rgb(255,102,102)">
      <rect x="1615" width="171" height="38" y="505" clip-path="url(#clipPath2)" stroke="none"/>
      <rect x="1614" y="504" clip-path="url(#clipPath2)" fill="rgb(255,145,145)" width="1" height="40" stroke="none"/>
      <rect x="1615" y="504" clip-path="url(#clipPath2)" fill="rgb(255,145,145)" width="171" height="1" stroke="none"/>
      <rect x="1615" y="543" clip-path="url(#clipPath2)" fill="rgb(178,71,71)" width="172" height="1" stroke="none"/>
      <rect x="1786" y="504" clip-path="url(#clipPath2)" fill="rgb(178,71,71)" width="1" height="39" stroke="none"/>
    </g>
    <g font-size="15px" stroke-linecap="butt" transform="matrix(1,0,0,1,-360,-227)" text-rendering="geometricPrecision" font-family="sans-serif" shape-rendering="geometricPrecision" font-weight="bold" stroke-miterlimit="1.45">
      <text x="1627.9069" xml:space="preserve" y="523.9784" clip-path="url(#clipPath9)" stroke="none">ComplexFormation</text>
    </g>
    <g fill="rgb(255,102,102)" text-rendering="geometricPrecision" shape-rendering="geometricPrecision" transform="matrix(1,0,0,1,-360,-227)" stroke="rgb(255,102,102)">
      <rect x="1818" width="163" height="38" y="505" clip-path="url(#clipPath2)" stroke="none"/>
      <rect x="1817" y="504" clip-path="url(#clipPath2)" fill="rgb(255,145,145)" width="1" height="40" stroke="none"/>
      <rect x="1818" y="504" clip-path="url(#clipPath2)" fill="rgb(255,145,145)" width="163" height="1" stroke="none"/>
      <rect x="1818" y="543" clip-path="url(#clipPath2)" fill="rgb(178,71,71)" width="164" height="1" stroke="none"/>
      <rect x="1981" y="504" clip-path="url(#clipPath2)" fill="rgb(178,71,71)" width="1" height="39" stroke="none"/>
    </g>
    <g font-size="15px" stroke-linecap="butt" transform="matrix(1,0,0,1,-360,-227)" text-rendering="geometricPrecision" font-family="sans-serif" shape-rendering="geometricPrecision" font-weight="bold" stroke-miterlimit="1.45">
      <text x="1829.485" xml:space="preserve" y="523.9784" clip-path="url(#clipPath10)" stroke="none">MetabolicReaction</text>
    </g>
    <g fill="rgb(255,102,102)" text-rendering="geometricPrecision" shape-rendering="geometricPrecision" transform="matrix(1,0,0,1,-360,-227)" stroke="rgb(255,102,102)">
      <rect x="1396" width="197" height="38" y="505" clip-path="url(#clipPath2)" stroke="none"/>
      <rect x="1395" y="504" clip-path="url(#clipPath2)" fill="rgb(255,145,145)" width="1" height="40" stroke="none"/>
      <rect x="1396" y="504" clip-path="url(#clipPath2)" fill="rgb(255,145,145)" width="197" height="1" stroke="none"/>
      <rect x="1396" y="543" clip-path="url(#clipPath2)" fill="rgb(178,71,71)" width="198" height="1" stroke="none"/>
      <rect x="1593" y="504" clip-path="url(#clipPath2)" fill="rgb(178,71,71)" width="1" height="39" stroke="none"/>
    </g>
    <g font-size="15px" stroke-linecap="butt" transform="matrix(1,0,0,1,-360,-227)" text-rendering="geometricPrecision" font-family="sans-serif" shape-rendering="geometricPrecision" font-weight="bold" stroke-miterlimit="1.45">
      <text x="1400.9218" xml:space="preserve" y="523.9784" clip-path="url(#clipPath11)" stroke="none">PostTranslationReaction</text>
    </g>
    <g fill="silver" text-rendering="geometricPrecision" shape-rendering="geometricPrecision" transform="matrix(1,0,0,1,-360,-227)" stroke="silver">
      <rect x="1598" width="157" height="38" y="641" clip-path="url(#clipPath2)" stroke="none"/>
      <rect x="1597" y="640" clip-path="url(#clipPath2)" fill="white" width="1" height="40" stroke="none"/>
      <rect x="1598" y="640" clip-path="url(#clipPath2)" fill="white" width="157" height="1" stroke="none"/>
      <rect x="1598" y="679" clip-path="url(#clipPath2)" fill="rgb(134,134,134)" width="158" height="1" stroke="none"/>
      <rect x="1755" y="640" clip-path="url(#clipPath2)" fill="rgb(134,134,134)" width="1" height="39" stroke="none"/>
    </g>
    <g font-size="15px" stroke-linecap="butt" transform="matrix(1,0,0,1,-360,-227)" text-rendering="geometricPrecision" font-family="sans-serif" shape-rendering="geometricPrecision" font-weight="bold" stroke-miterlimit="1.45">
      <text x="1604.3496" xml:space="preserve" y="659.5561" clip-path="url(#clipPath12)" stroke="none">StoichiometricData</text>
    </g>
    <g fill="silver" text-rendering="geometricPrecision" shape-rendering="geometricPrecision" transform="matrix(1,0,0,1,-360,-227)" stroke="silver">
      <rect x="1446" width="125" height="38" y="641" clip-path="url(#clipPath2)" stroke="none"/>
      <rect x="1445" y="640" clip-path="url(#clipPath2)" fill="white" width="1" height="40" stroke="none"/>
      <rect x="1446" y="640" clip-path="url(#clipPath2)" fill="white" width="125" height="1" stroke="none"/>
      <rect x="1446" y="679" clip-path="url(#clipPath2)" fill="rgb(134,134,134)" width="126" height="1" stroke="none"/>
      <rect x="1571" y="640" clip-path="url(#clipPath2)" fill="rgb(134,134,134)" width="1" height="39" stroke="none"/>
    </g>
    <g font-size="15px" stroke-linecap="butt" transform="matrix(1,0,0,1,-360,-227)" text-rendering="geometricPrecision" font-family="sans-serif" shape-rendering="geometricPrecision" font-weight="bold" stroke-miterlimit="1.45">
      <text x="1457.5392" xml:space="preserve" y="659.5561" clip-path="url(#clipPath13)" stroke="none">ComplexData</text>
    </g>
    <g fill="silver" text-rendering="geometricPrecision" shape-rendering="geometricPrecision" transform="matrix(1,0,0,1,-360,-227)" stroke="silver">
      <rect x="1257" width="164" height="38" y="641" clip-path="url(#clipPath2)" stroke="none"/>
      <rect x="1256" y="640" clip-path="url(#clipPath2)" fill="white" width="1" height="40" stroke="none"/>
      <rect x="1257" y="640" clip-path="url(#clipPath2)" fill="white" width="164" height="1" stroke="none"/>
      <rect x="1257" y="679" clip-path="url(#clipPath2)" fill="rgb(134,134,134)" width="165" height="1" stroke="none"/>
      <rect x="1421" y="640" clip-path="url(#clipPath2)" fill="rgb(134,134,134)" width="1" height="39" stroke="none"/>
    </g>
    <g font-size="15px" stroke-linecap="butt" transform="matrix(1,0,0,1,-360,-227)" text-rendering="geometricPrecision" font-family="sans-serif" shape-rendering="geometricPrecision" font-weight="bold" stroke-miterlimit="1.45">
      <text x="1261.2235" xml:space="preserve" y="659.5561" clip-path="url(#clipPath14)" stroke="none">PostTranslationData</text>
    </g>
    <g fill="silver" text-rendering="geometricPrecision" shape-rendering="geometricPrecision" transform="matrix(1,0,0,1,-360,-227)" stroke="silver">
      <rect x="1122" width="103" height="38" y="641" clip-path="url(#clipPath2)" stroke="none"/>
      <rect x="1121" y="640" clip-path="url(#clipPath2)" fill="white" width="1" height="40" stroke="none"/>
      <rect x="1122" y="640" clip-path="url(#clipPath2)" fill="white" width="103" height="1" stroke="none"/>
      <rect x="1122" y="679" clip-path="url(#clipPath2)" fill="rgb(134,134,134)" width="104" height="1" stroke="none"/>
      <rect x="1225" y="640" clip-path="url(#clipPath2)" fill="rgb(134,134,134)" width="1" height="39" stroke="none"/>
    </g>
    <g font-size="15px" stroke-linecap="butt" transform="matrix(1,0,0,1,-360,-227)" text-rendering="geometricPrecision" font-family="sans-serif" shape-rendering="geometricPrecision" font-weight="bold" stroke-miterlimit="1.45">
      <text x="1133.751" xml:space="preserve" y="659.5561" clip-path="url(#clipPath15)" stroke="none">tRNA_data</text>
    </g>
    <g fill="silver" text-rendering="geometricPrecision" shape-rendering="geometricPrecision" transform="matrix(1,0,0,1,-360,-227)" stroke="silver">
      <rect x="965" width="135" height="38" y="641" clip-path="url(#clipPath2)" stroke="none"/>
      <rect x="964" y="640" clip-path="url(#clipPath2)" fill="white" width="1" height="40" stroke="none"/>
      <rect x="965" y="640" clip-path="url(#clipPath2)" fill="white" width="135" height="1" stroke="none"/>
      <rect x="965" y="679" clip-path="url(#clipPath2)" fill="rgb(134,134,134)" width="136" height="1" stroke="none"/>
      <rect x="1100" y="640" clip-path="url(#clipPath2)" fill="rgb(134,134,134)" width="1" height="39" stroke="none"/>
    </g>
    <g font-size="15px" stroke-linecap="butt" transform="matrix(1,0,0,1,-360,-227)" text-rendering="geometricPrecision" font-family="sans-serif" shape-rendering="geometricPrecision" font-weight="bold" stroke-miterlimit="1.45">
      <text x="970.9481" xml:space="preserve" y="659.5561" clip-path="url(#clipPath16)" stroke="none">TranslationData</text>
    </g>
    <g fill="silver" text-rendering="geometricPrecision" shape-rendering="geometricPrecision" transform="matrix(1,0,0,1,-360,-227)" stroke="silver">
      <rect x="782" width="151" height="38" y="641" clip-path="url(#clipPath2)" stroke="none"/>
      <rect x="781" y="640" clip-path="url(#clipPath2)" fill="white" width="1" height="40" stroke="none"/>
      <rect x="782" y="640" clip-path="url(#clipPath2)" fill="white" width="151" height="1" stroke="none"/>
      <rect x="782" y="679" clip-path="url(#clipPath2)" fill="rgb(134,134,134)" width="152" height="1" stroke="none"/>
      <rect x="933" y="640" clip-path="url(#clipPath2)" fill="rgb(134,134,134)" width="1" height="39" stroke="none"/>
    </g>
    <g font-size="15px" stroke-linecap="butt" transform="matrix(1,0,0,1,-360,-227)" text-rendering="geometricPrecision" font-family="sans-serif" shape-rendering="geometricPrecision" font-weight="bold" stroke-miterlimit="1.45">
      <text x="787.6329" xml:space="preserve" y="659.5561" clip-path="url(#clipPath17)" stroke="none">TranscriptionData</text>
    </g>
    <g fill="silver" text-rendering="geometricPrecision" shape-rendering="geometricPrecision" transform="matrix(1,0,0,1,-360,-227)" stroke="silver">
      <rect x="1385" width="151" height="38" y="799" clip-path="url(#clipPath2)" stroke="none"/>
      <rect x="1384" y="798" clip-path="url(#clipPath2)" fill="white" width="1" height="40" stroke="none"/>
      <rect x="1385" y="798" clip-path="url(#clipPath2)" fill="white" width="151" height="1" stroke="none"/>
      <rect x="1385" y="837" clip-path="url(#clipPath2)" fill="rgb(134,134,134)" width="152" height="1" stroke="none"/>
      <rect x="1536" y="798" clip-path="url(#clipPath2)" fill="rgb(134,134,134)" width="1" height="39" stroke="none"/>
    </g>
    <g font-size="15px" stroke-linecap="butt" transform="matrix(1,0,0,1,-360,-227)" text-rendering="geometricPrecision" font-family="sans-serif" shape-rendering="geometricPrecision" font-weight="bold" stroke-miterlimit="1.45">
      <text x="1390.059" xml:space="preserve" y="817.5342" clip-path="url(#clipPath18)" stroke="none">TranslocationData</text>
    </g>
    <g fill="silver" text-rendering="geometricPrecision" shape-rendering="geometricPrecision" transform="matrix(1,0,0,1,-360,-227)" stroke="silver">
      <rect x="807" width="164" height="38" y="799" clip-path="url(#clipPath2)" stroke="none"/>
      <rect x="806" y="798" clip-path="url(#clipPath2)" fill="white" width="1" height="40" stroke="none"/>
      <rect x="807" y="798" clip-path="url(#clipPath2)" fill="white" width="164" height="1" stroke="none"/>
      <rect x="807" y="837" clip-path="url(#clipPath2)" fill="rgb(134,134,134)" width="165" height="1" stroke="none"/>
      <rect x="971" y="798" clip-path="url(#clipPath2)" fill="rgb(134,134,134)" width="1" height="39" stroke="none"/>
    </g>
    <g font-size="15px" stroke-linecap="butt" transform="matrix(1,0,0,1,-360,-227)" text-rendering="geometricPrecision" font-family="sans-serif" shape-rendering="geometricPrecision" font-weight="bold" stroke-miterlimit="1.45">
      <text x="826.9221" xml:space="preserve" y="817.5342" clip-path="url(#clipPath19)" stroke="none">SubreactionData</text>
    </g>
    <g fill="silver" text-rendering="geometricPrecision" shape-rendering="geometricPrecision" transform="matrix(1,0,0,1,-360,-227)" stroke="silver">
      <rect x="646" width="112" height="38" y="641" clip-path="url(#clipPath2)" stroke="none"/>
      <rect x="645" y="640" clip-path="url(#clipPath2)" fill="white" width="1" height="40" stroke="none"/>
      <rect x="646" y="640" clip-path="url(#clipPath2)" fill="white" width="112" height="1" stroke="none"/>
      <rect x="646" y="679" clip-path="url(#clipPath2)" fill="rgb(134,134,134)" width="113" height="1" stroke="none"/>
      <rect x="758" y="640" clip-path="url(#clipPath2)" fill="rgb(134,134,134)" width="1" height="39" stroke="none"/>
    </g>
    <g font-size="15px" stroke-linecap="butt" transform="matrix(1,0,0,1,-360,-227)" text-rendering="geometricPrecision" font-family="sans-serif" shape-rendering="geometricPrecision" font-weight="bold" stroke-miterlimit="1.45">
      <text x="655.6928" xml:space="preserve" y="659.5561" clip-path="url(#clipPath20)" stroke="none">GenericData</text>
    </g>
    <g fill="silver" text-rendering="geometricPrecision" shape-rendering="geometricPrecision" transform="matrix(1,0,0,1,-360,-227)" stroke="silver">
      <rect x="1060" width="227" height="38" y="799" clip-path="url(#clipPath2)" stroke="none"/>
      <rect x="1059" y="798" clip-path="url(#clipPath2)" fill="white" width="1" height="40" stroke="none"/>
      <rect x="1060" y="798" clip-path="url(#clipPath2)" fill="white" width="227" height="1" stroke="none"/>
      <rect x="1060" y="837" clip-path="url(#clipPath2)" fill="rgb(134,134,134)" width="228" height="1" stroke="none"/>
      <rect x="1287" y="798" clip-path="url(#clipPath2)" fill="rgb(134,134,134)" width="1" height="39" stroke="none"/>
    </g>
    <g font-size="15px" stroke-linecap="butt" transform="matrix(1,0,0,1,-360,-227)" text-rendering="geometricPrecision" font-family="sans-serif" shape-rendering="geometricPrecision" font-weight="bold" stroke-miterlimit="1.45">
      <text x="1126.3572" xml:space="preserve" y="817.5342" clip-path="url(#clipPath21)" stroke="none">ProcessData</text>
    </g>
    <g fill="rgb(255,102,102)" text-rendering="geometricPrecision" shape-rendering="geometricPrecision" transform="matrix(1,0,0,1,-360,-227)" stroke="rgb(255,102,102)">
      <rect x="1060" width="227" height="38" y="243" clip-path="url(#clipPath2)" stroke="none"/>
      <rect x="1059" y="242" clip-path="url(#clipPath2)" fill="rgb(255,145,145)" width="1" height="40" stroke="none"/>
      <rect x="1060" y="242" clip-path="url(#clipPath2)" fill="rgb(255,145,145)" width="227" height="1" stroke="none"/>
      <rect x="1060" y="281" clip-path="url(#clipPath2)" fill="rgb(178,71,71)" width="228" height="1" stroke="none"/>
      <rect x="1287" y="242" clip-path="url(#clipPath2)" fill="rgb(178,71,71)" width="1" height="39" stroke="none"/>
    </g>
    <g font-size="15px" stroke-linecap="butt" transform="matrix(1,0,0,1,-360,-227)" text-rendering="geometricPrecision" font-family="sans-serif" shape-rendering="geometricPrecision" font-weight="bold" stroke-miterlimit="1.45">
      <text x="1065.5515" xml:space="preserve" y="261.7838" clip-path="url(#clipPath22)" stroke="none">cobra.core.reaction.Reaction</text>
    </g>
    <g text-rendering="geometricPrecision" stroke-miterlimit="1.45" stroke-width="3" shape-rendering="geometricPrecision" transform="matrix(1,0,0,1,-360,-227)" stroke-linecap="butt">
      <path fill="none" d="M451.9293 504.4982 L451.9293 405.0152 L1076.9293 405.0152 L1076.9293 384.3094" clip-path="url(#clipPath2)"/>
      <path fill="white" d="M1076.9293 365.5594 L1069.4293 385.5594 L1084.4293 385.5594 Z" clip-path="url(#clipPath2)" stroke="none"/>
      <path fill="none" d="M1076.9293 365.5594 L1069.4293 385.5594 L1084.4293 385.5594 Z" stroke-width="1" clip-path="url(#clipPath2)"/>
      <path fill="none" d="M665.8303 504.5162 L665.8303 425.0152 L1105.4697 425.0152 L1105.4697 384.2937" clip-path="url(#clipPath2)"/>
      <path fill="white" d="M1105.4697 365.5437 L1097.9697 385.5437 L1112.9697 385.5437 Z" clip-path="url(#clipPath2)" stroke="none"/>
      <path fill="none" d="M1105.4697 365.5437 L1097.9697 385.5437 L1112.9697 385.5437 Z" stroke-width="1" clip-path="url(#clipPath2)"/>
      <path fill="none" d="M884.1118 504.4948 L884.1118 445.0152 L1131.2284 445.0152 L1131.2284 384.2677" clip-path="url(#clipPath2)"/>
      <path fill="white" d="M1131.2284 365.5177 L1123.7284 385.5177 L1138.7284 385.5177 Z" clip-path="url(#clipPath2)" stroke="none"/>
      <path fill="none" d="M1131.2284 365.5177 L1123.7284 385.5177 L1138.7284 385.5177 Z" stroke-width="1" clip-path="url(#clipPath2)"/>
      <path fill="none" d="M1080.9177 504.5009 L1080.9177 466.7756 L1157.4512 466.7756 L1157.4512 384.2843" clip-path="url(#clipPath2)"/>
      <path fill="white" d="M1157.4512 365.5343 L1149.9512 385.5343 L1164.9512 385.5343 Z" clip-path="url(#clipPath2)" stroke="none"/>
      <path fill="none" d="M1157.4512 365.5343 L1149.9512 385.5343 L1164.9512 385.5343 Z" stroke-width="1" clip-path="url(#clipPath2)"/>
      <path fill="none" d="M1280.3303 504.5009 L1280.3303 466.7756 L1188.9746 466.7756 L1188.9746 384.2823" clip-path="url(#clipPath2)"/>
      <path fill="white" d="M1188.9746 365.5323 L1181.4746 385.5323 L1196.4746 385.5323 Z" clip-path="url(#clipPath2)" stroke="none"/>
      <path fill="none" d="M1188.9746 365.5323 L1181.4746 385.5323 L1196.4746 385.5323 Z" stroke-width="1" clip-path="url(#clipPath2)"/>
      <path fill="none" d="M1700.9293 504.5162 L1700.9293 425.0152 L1241.7865 425.0152 L1241.7865 384.3298" clip-path="url(#clipPath2)"/>
      <path fill="white" d="M1241.7865 365.5798 L1234.2865 385.5798 L1249.2865 385.5798 Z" clip-path="url(#clipPath2)" stroke="none"/>
      <path fill="none" d="M1241.7865 365.5798 L1234.2865 385.5798 L1249.2865 385.5798 Z" stroke-width="1" clip-path="url(#clipPath2)"/>
      <path fill="none" d="M1899.9293 504.4982 L1899.9293 405.0152 L1275.9293 405.0152 L1275.9293 384.3306" clip-path="url(#clipPath2)"/>
      <path fill="white" d="M1275.9293 365.5806 L1268.4293 385.5806 L1283.4293 385.5806 Z" clip-path="url(#clipPath2)" stroke="none"/>
      <path fill="none" d="M1275.9293 365.5806 L1268.4293 385.5806 L1283.4293 385.5806 Z" stroke-width="1" clip-path="url(#clipPath2)"/>
      <path fill="none" d="M1484.3646 504.4948 L1484.3646 445.0152 L1214.3496 445.0152 L1214.3496 384.3466" clip-path="url(#clipPath2)"/>
      <path fill="white" d="M1214.3496 365.5966 L1206.8496 385.5966 L1221.8496 385.5966 Z" clip-path="url(#clipPath2)" stroke="none"/>
      <path fill="none" d="M1214.3496 365.5966 L1206.8496 385.5966 L1221.8496 385.5966 Z" stroke-width="1" clip-path="url(#clipPath2)"/>
      <path fill="none" d="M1899.9293 544.4961 L1899.9293 618.8593 L1677.4014 618.8593 L1677.4014 640.0787" clip-path="url(#clipPath2)"/>
      <text x="1642.6589" font-size="15px" y="635.1257" clip-path="url(#clipPath2)" font-family="sans-serif" stroke="none" stroke-width="1" xml:space="preserve">1</text>
      <text x="1855.6984" font-size="15px" y="565.9784" clip-path="url(#clipPath2)" font-family="sans-serif" stroke="none" stroke-width="1" xml:space="preserve">1..2</text>
      <path fill="none" d="M1700.9293 544.4886 L1700.9293 598.8593 L1508.9845 598.8593 L1508.9845 640.0169" clip-path="url(#clipPath2)"/>
      <text x="1666.1869" font-size="15px" y="565.9784" clip-path="url(#clipPath2)" font-family="sans-serif" stroke="none" stroke-width="1" xml:space="preserve">1</text>
      <text x="1474.2421" font-size="15px" y="629.8901" clip-path="url(#clipPath2)" font-family="sans-serif" stroke="none" stroke-width="1" xml:space="preserve">1</text>
      <path fill="none" d="M1494.9574 544.4886 L1494.9574 598.8593 L1339.9003 598.8593 L1339.9003 640.0642" clip-path="url(#clipPath2)"/>
      <text x="1305.1578" font-size="15px" y="629.8901" clip-path="url(#clipPath2)" font-family="sans-serif" stroke="none" stroke-width="1" xml:space="preserve">1</text>
      <text x="1460.215" font-size="15px" y="565.9784" clip-path="url(#clipPath2)" font-family="sans-serif" stroke="none" stroke-width="1" xml:space="preserve">1</text>
      <path fill="none" d="M1280.3303 544.4886 L1280.3303 598.8593 L1173.8291 598.8593 L1173.8291 640.0642" clip-path="url(#clipPath2)"/>
      <text x="1139.0867" font-size="15px" y="629.8901" clip-path="url(#clipPath2)" font-family="sans-serif" stroke="none" stroke-width="1" xml:space="preserve">1</text>
      <text x="1245.5879" font-size="15px" y="565.9784" clip-path="url(#clipPath2)" font-family="sans-serif" stroke="none" stroke-width="1" xml:space="preserve">1</text>
      <path fill="none" d="M1080.9177 544.4886 L1080.9177 598.8593 L1032.955 598.8593 L1032.955 640.0642" clip-path="url(#clipPath2)"/>
      <text x="998.2125" font-size="15px" y="629.8901" clip-path="url(#clipPath2)" font-family="sans-serif" stroke="none" stroke-width="1" xml:space="preserve">1</text>
      <text x="1046.1753" font-size="15px" y="565.9784" clip-path="url(#clipPath2)" font-family="sans-serif" stroke="none" stroke-width="1" xml:space="preserve">1</text>
      <path fill="none" d="M884.1118 544.5198 L884.1118 617.9818 L857.6011 617.9818 L857.6011 640.0451" clip-path="url(#clipPath2)"/>
      <text x="822.8587" font-size="15px" y="634.6869" clip-path="url(#clipPath2)" font-family="sans-serif" stroke="none" stroke-width="1" xml:space="preserve">1</text>
      <text x="849.3693" font-size="15px" y="565.9784" clip-path="url(#clipPath2)" font-family="sans-serif" stroke="none" stroke-width="1" xml:space="preserve">1</text>
      <path fill="none" d="M1403.9692 798.0671 L1403.9692 680.0295" clip-path="url(#clipPath2)"/>
      <text x="1369.2268" font-size="15px" y="787.8682" clip-path="url(#clipPath2)" font-family="sans-serif" stroke="none" stroke-width="1" xml:space="preserve">1</text>
      <text x="1360.8662" font-size="15px" y="701.5561" clip-path="url(#clipPath2)" font-family="sans-serif" stroke="none" stroke-width="1" xml:space="preserve">1..*</text>
      <path fill="none" d="M702.6447 640.0807 L702.6447 597.9818 L665.8303 597.9818 L665.8303 544.4679" clip-path="url(#clipPath2)"/>
      <text x="666.9538" font-size="15px" y="629.8901" clip-path="url(#clipPath2)" font-family="sans-serif" stroke="none" stroke-width="1" xml:space="preserve">1</text>
      <text x="619.0128" font-size="15px" y="570.0486" clip-path="url(#clipPath2)" font-family="sans-serif" stroke="none" stroke-width="1" xml:space="preserve">1..*</text>
      <path fill="none" d="M1032.955 680.0811 L1032.955 721.5462 L1144.7438 721.5462 L1144.7438 778.9866" clip-path="url(#clipPath2)"/>
      <path fill="white" d="M1144.7438 797.7366 L1152.2438 777.7366 L1137.2438 777.7366 Z" clip-path="url(#clipPath2)" stroke="none"/>
      <path fill="none" d="M1144.7438 797.7366 L1152.2438 777.7366 L1137.2438 777.7366 Z" stroke-width="1" clip-path="url(#clipPath2)"/>
      <path fill="none" d="M1173.8291 680.0189 L1173.8291 779.2954" clip-path="url(#clipPath2)"/>
      <path fill="white" d="M1173.8291 798.0454 L1181.3291 778.0454 L1166.3291 778.0454 Z" clip-path="url(#clipPath2)" stroke="none"/>
      <path fill="none" d="M1173.8291 798.0454 L1181.3291 778.0454 L1166.3291 778.0454 Z" stroke-width="1" clip-path="url(#clipPath2)"/>
      <path fill="none" d="M1339.9003 680.0419 L1339.9003 721.5462 L1204.355 721.5462 L1204.355 778.996" clip-path="url(#clipPath2)"/>
      <path fill="white" d="M1204.355 797.746 L1211.855 777.746 L1196.855 777.746 Z" clip-path="url(#clipPath2)" stroke="none"/>
      <path fill="none" d="M1204.355 797.746 L1211.855 777.746 L1196.855 777.746 Z" stroke-width="1" clip-path="url(#clipPath2)"/>
      <path fill="none" d="M1508.9845 680.069 L1508.9845 741.5462 L1233.8291 741.5462 L1233.8291 778.9679" clip-path="url(#clipPath2)"/>
      <path fill="white" d="M1233.8291 797.7179 L1241.3291 777.7179 L1226.3291 777.7179 Z" clip-path="url(#clipPath2)" stroke="none"/>
      <path fill="none" d="M1233.8291 797.7179 L1241.3291 777.7179 L1226.3291 777.7179 Z" stroke-width="1" clip-path="url(#clipPath2)"/>
      <path fill="none" d="M1677.4014 680.0255 L1677.4014 761.5462 L1261.837 761.5462 L1261.837 778.996" clip-path="url(#clipPath2)"/>
      <path fill="white" d="M1261.837 797.746 L1269.337 777.746 L1254.337 777.746 Z" clip-path="url(#clipPath2)" stroke="none"/>
      <path fill="none" d="M1261.837 797.746 L1269.337 777.746 L1254.337 777.746 Z" stroke-width="1" clip-path="url(#clipPath2)"/>
      <text x="1645.5029" y="732.3685" clip-path="url(#clipPath2)" font-family="sans-serif" stroke="none" stroke-width="1" xml:space="preserve"> </text>
      <path fill="none" d="M857.6011 680.069 L857.6011 741.5462 L1119.0353 741.5462 L1119.0353 779.0054" clip-path="url(#clipPath2)"/>
      <path fill="white" d="M1119.0353 797.7554 L1126.5353 777.7554 L1111.5353 777.7554 Z" clip-path="url(#clipPath2)" stroke="none"/>
      <path fill="none" d="M1119.0353 797.7554 L1126.5353 777.7554 L1111.5353 777.7554 Z" stroke-width="1" clip-path="url(#clipPath2)"/>
      <path fill="none" d="M1384.3187 818.0322 L1375.1241 818.0322 L1375.1241 818.0322 L1307.071 818.0322" clip-path="url(#clipPath2)"/>
      <path fill="white" d="M1288.321 818.0322 L1308.321 825.5322 L1308.321 810.5322 Z" clip-path="url(#clipPath2)" stroke="none"/>
      <path fill="none" d="M1288.321 818.0322 L1308.321 825.5322 L1308.321 810.5322 Z" stroke-width="1" clip-path="url(#clipPath2)"/>
      <path fill="none" d="M973.809 818.0322 L993.7943 818.0322 L993.7943 818.0322 L1040.5472 818.0322" clip-path="url(#clipPath2)"/>
      <path fill="white" d="M1059.2972 818.0322 L1039.2972 810.5322 L1039.2972 825.5322 Z" clip-path="url(#clipPath2)" stroke="none"/>
      <path fill="none" d="M1059.2972 818.0322 L1039.2972 810.5322 L1039.2972 825.5322 Z" stroke-width="1" clip-path="url(#clipPath2)"/>
      <path fill="none" d="M702.6447 680.0255 L702.6447 761.5462 L1093.8291 761.5462 L1093.8291 779.308" clip-path="url(#clipPath2)"/>
      <path fill="white" d="M1093.8291 798.058 L1101.3291 778.058 L1086.3291 778.058 Z" clip-path="url(#clipPath2)" stroke="none"/>
      <path fill="none" d="M1093.8291 798.058 L1101.3291 778.058 L1086.3291 778.058 Z" stroke-width="1" clip-path="url(#clipPath2)"/>
      <path fill="none" d="M1173.8291 325.5647 L1173.8291 301.041" clip-path="url(#clipPath2)"/>
      <path fill="white" d="M1173.8291 282.291 L1166.3291 302.291 L1181.3291 302.291 Z" clip-path="url(#clipPath2)" stroke="none"/>
      <path fill="none" d="M1173.8291 282.291 L1166.3291 302.291 L1181.3291 302.291 Z" stroke-width="1" clip-path="url(#clipPath2)"/>
    </g>
  </g>
</svg>
